<?xml version="1.0" encoding="utf-8"?>
<!-- Generator: Adobe Illustrator 27.5.0, SVG Export Plug-In . SVG Version: 6.00 Build 0)  -->
<svg version="1.1" id="Layer_1" xmlns="http://www.w3.org/2000/svg" xmlns:xlink="http://www.w3.org/1999/xlink" x="0px" y="0px"
	 viewBox="0 0 1024 1024" style="enable-background:new 0 0 1024 1024;" xml:space="preserve">
<g id="artwork_1_">
	<path d="M209.755,130.056c19.99-31.316,41.001-64.468,73.311-84.955c-33.179,37.456-58.936,84.664-60.054,135.695
		c-1.255,46.989,19.521,97.482,61.544,121.555c-28.529-24.474-50.107-57.79-57.446-94.887c5.022,10.154,10.609-2.732,12.513-7.96
		c21.122-52.439,61.805-98.903,115.526-118.851c-50.976,30.226-83.92,84.65-97.178,141.434
		c-12.94,39.001,18.832,72.097,48.88,91.494c-1.78-36.504,0.026-73.779,11.505-108.738c-2.649,31.965-1.669,64.247,3.254,95.963
		c2.332,21.052,15.301,44.754,38.754,46.382c2.676-53.597,8.401-107.814,26.805-158.57c-4.373,53.874-6.553,109.305,7.477,162.005
		c3.876,12.72,14.43,30.848,30.116,25.881c13.133-16.197,10.981-40.973,25.88-56.549c-3.544,27.371-2.358,55.059-0.566,82.513
		c30.448,39.083,94.667,38.573,125.226-0.11c0.648-27.261,2.981-54.701-0.91-81.838c15.643,15.038,12.83,39.966,25.743,56.247
		c16.651,4.483,28.832-14.362,32.518-28.476c13.56-51.995,10.926-106.599,5.986-159.617
		c18.665,50.714,24.004,105.083,26.308,158.693c19.701-2.331,33.221-20.418,37.015-38.794c7.063-34.2,7.753-69.476,4.844-104.2
		c11.395,35.166,13.312,72.663,11.021,109.332c20.114-13.409,39.097-31.068,48.561-53.721c7.201-27.508-4.29-55.335-14.499-80.554
		c-16.857-40.311-45.333-75.932-82.829-98.75c53.003,20.363,93.714,65.654,114.947,117.65c1.943,6.663,9.035,19.811,13.946,7.574
		c-7.78,37.593-28.571,71.972-57.68,96.916c39.056-22.654,60.536-68.704,60.729-112.933c2.069-54.273-25.715-104.696-59.805-145.021
		c29.909,20.389,51.804,50.63,68.827,82.14c1.903,3.794,6.306,1.338,5.987-2.304c2.58-24.267,2.953-49.195-2.952-73.048
		c20.031,37.565,19.259,82.084,19.148,123.555c-3.325,47.334-7.987,100.378-40.685,137.517
		c-53.361,45.637-125.582,61.282-179.827,105.787c-2.938,2.704-8.141,10.65-1.767,11.974c13.741,0.497,22.033-12.911,32.517-19.741
		c42.56-33.179,99.233-40.297,151.618-38.45c-16.598,37.539-31.884,76.733-56.84,109.622
		c-17.824,20.681-47.375,32.076-74.168,24.419c-9.808,18.514-22.127,37.635-42.158,46.229c0.952,28.751,9.835,56.452,13.588,84.857
		c5.934,44.354,6.044,91.798-14.721,132.619c-20.044,40.932-54.176,72.305-78.718,110.242
		c-19.053,29.372-25.37,64.564-28.489,98.849c-1.945-25.22-5.614-50.7-15.836-74.029c-24.433-56.148-78.347-93.977-98.724-152.347
		c-12.277-34.684-11.947-72.317-7.753-108.435c3.38-30.917,13.714-60.881,14.196-92.143c-18.94-9.642-31.233-27.894-41.18-46.008
		c-42.104,12.899-81.092-19.784-96.239-56.922c-12.679-25.218-25.177-50.575-35.263-76.954
		c51.984-2.192,107.815,5.519,150.319,37.773c11.326,6.953,20.625,23.521,35.565,19.769c2.098-11.479-12.953-17.479-20.693-23.742
		c-40.119-26.586-85.451-43.691-127.211-67.365c-19.106-10.679-38.352-23.315-49.72-42.602
		c-22.652-43.209-28.46-93.371-28.254-141.56c1.118-34.738,2.332-71.573,19.273-102.82
		C206.127,77.19,202.237,105.044,209.755,130.056 M245.265,383.471c10.926,38.243,32.696,74.318,63.406,99.882
		c24.268,18.156,59.861,20.556,86.72,7.159c-10.209,2.401-23.839,8.553-32.586-0.538c-3.918-6.085-9.67-9.699-16.76-10.954
		c-21.646-7.532-27.647-31.179-37.622-49.127c-7.505-12.582-18.997-22.17-31.151-30.061c24.004,9.284,50.768,9.45,74.055,20.28
		c25.62,12.748,20.765,57.045,52.95,58.936c6.898-9.755,12.112-21.329,12.72-33.4c-11.326-1.255-22.832-4.926-30.227-14.127
		C352.5,391.1,295.538,381.706,245.265,383.471 M639.977,430.197c-7.74,9.754-19.576,14.39-31.675,15.686
		c0.883,11.727,5.339,23.866,12.678,32.944c32.973-1.586,27.619-47.802,54.714-59.805c23.205-9.713,49.265-10.085,72.898-18.982
		c-13.976,8.953-27.066,20.293-34.544,35.399c-7.119,14.1-12.112,30.945-26.543,39.484c-7.161,5.367-17.99,4.678-23.026,12.845
		c-8.333,11.284-24.129,4.98-35.206,2.675c16.899,8.843,36.917,9.271,55.431,6.802c25.081-3.945,44.134-22.681,58.922-42.008
		c16.307-21.413,30.061-45.375,36.683-71.628C730.506,381.333,674.604,391.169,639.977,430.197 M430.902,463.817
		c-8.265,6.967-9.023,19.37-15.742,27.771c7.05-2.111,13.893-4.897,21.136-6.304c-15.714,13.96-35.386,28.516-57.639,25.467
		c11.961,24.667,41.869-4.594,60.232,9.229c17.355,13.12,24.708,36.338,25.743,57.377c-3.835-7.946-5.381-17.728-12.527-23.535
		c-9.961-4.815-22.184-2.291-31.689-8.498c-7.035-4.25-8.001-13.106-10.222-20.253c-4.139,21.729,7.243,41.87,21.355,57.335
		c-3.891-1.406-7.491-3.407-10.844-5.795c0.745,15.177,0.787,30.476,3.009,45.541c3.2,22.294,17.396,40.768,31.578,57.445
		c-10.829-23.839-28.888-46.892-25.205-74.69c6.98,29.951,27.977,53.817,38.903,82.236c10.873,8.43,26.351,1.753,39.084,3.835
		c-12.941-6.967-28.832-10.111-38.117-22.474c-8.555-11.023-6.111-27.343,3.035-37.234c1.697,5.602,2.29,12.223,7.34,16.017
		c5.643-8.195,14.871-5.808,23.246-4.441c13.74,3.752,31.316-7.837,41.456,5.49c4.567-4.732,6.029-11.189,7.271-17.424
		c9.298,9.92,12.111,26.569,3.187,37.621c-9.161,13.134-25.784,15.838-39.36,22.294c14.017-2.317,37.111,7.822,43.293-10.14
		c10.553-26.82,32.654-48.989,35.233-78.747c5.904,29.219-13.286,53.873-24.971,78.692c11.175-12.914,22.115-26.6,28.378-42.657
		c6.83-19.729,6.167-40.932,7.822-61.476c-3.738,2.333-7.698,4.306-11.754,6.029c13.851-15.341,25.231-35.675,21.038-57.003
		c-0.482,17.106-17.3,25.191-32.392,25.439c-14.294-0.192-16.845,16.004-21.122,26.281c1.394-21.163,7.479-46.065,26.793-57.846
		c18.638-11.396,47.209,15.396,59.183-8.581c-22.61,2.207-42.698-11.079-58.7-25.564c7.422,1.683,14.457,4.732,21.907,6.345
		c-6.995-8.069-8.802-19.203-15.328-27.411c-20.265-5.918-41.815,2.097-59.321,12.457c-10.389,6.568-23.412,13.038-35.455,6.471
		C479.738,471.17,455.928,457.196,430.902,463.817 M421.506,524.906c-2.496,4.331,3.464,8.746,7.519,6.304
		C432.874,525.803,426.308,521.099,421.506,524.906 M596.162,524.093c-3.862,5.628,4.469,10.802,8.194,5.462
		C606.494,524.45,599.777,523.029,596.162,524.093 M389.542,525.472c3.063,3.738,6.705,6.939,10.83,9.492
		c1.117-3.257,2.069-6.582,2.994-9.879C398.758,525.375,394.149,525.472,389.542,525.472 M620.967,525.457
		c1.559,3.478,3.09,6.968,4.662,10.457c4.499-2.897,8.153-6.843,11.631-10.871C631.852,525.885,626.39,525.816,620.967,525.457
		 M407.504,724.034c16.776,67.6,87.479,104.049,104.709,171.716c13.976-50.988,56.012-85.465,85.534-126.989
		c31.58-45.871,29.331-104.82,18.444-157.024c-0.84,36.435-20.472,69.986-49.885,90.846c7.394-1.186,12.871-6.649,19.011-10.415
		c-8.015,10.029-16.541,19.754-26.42,28.005c-26.901,22.046-70.068,21.618-95.645-2.345c-8.485-8.209-16.955-16.569-24.005-26.075
		c6.126,3.864,11.727,8.982,18.956,10.747c-28.599-21.618-48.203-55.086-48.754-91.534
		C402.703,648.116,397.364,686.979,407.504,724.034 M470.275,647.758c-0.524,4.828,0.814,9.56,4.36,12.995
		C481.215,656.891,473.406,651.026,470.275,647.758 M547.794,655.827c0.055,0.871,0.152,2.581,0.207,3.436
		c0.979,0.098,2.952,0.29,3.932,0.4c2.745-3.352,3.311-7.532,3.021-11.713C552.787,650.765,550.428,653.428,547.794,655.827
		 M471.682,702.03c14.554,30.006,66.427,29.206,81.768,0.097C526.23,700.39,498.915,701.009,471.682,702.03z"/>
	<path d="M438.145,469.115c27.688-1.337,46.685,22.887,72.524,27.246c27.344-0.661,46.12-28.487,74.347-26.846
		c-28.627,6.898-45.375,40.905-77.175,38.505C480.677,502.983,465.142,475.145,438.145,469.115z"/>
	<path d="M473.406,543.296c21.673,2.981,30.365,28.667,29.455,47.774C498.488,572.639,490.969,552.925,473.406,543.296z"/>
	<path d="M523.224,591.36c-2.359-19.701,8.029-44.547,29.371-48.425C535.239,553.009,526.148,572.156,523.224,591.36z"/>
	<path d="M481.642,629.699c19.535-9.547,42.795-8.319,62.565-0.097C523.39,630.168,502.446,630.486,481.642,629.699z"/>
	<path d="M512.187,818.481c20.101-25.357,38.214-52.851,63.558-73.476c-26.82,33.62-46.824,72.151-63.503,111.649
		c-16.9-39.182-35.553-78.224-62.965-111.292C474.786,765.354,492.763,792.945,512.187,818.481z"/>
</g>
</svg>
